# xmcd CD database file
#
# Track frame offsets:
#	150
#	17897
#	30979
#	46231
#	58083
#	71447
#	87362
#	106339
#	117391
#	128693
#	140720
#	153174
#	165599
#
# Disc length: 2350 seconds
#
# Revision: 0
# Processed by: cddbd v1.5.2PL0 Copyright (c) Steve Scherf et al.
# Submitted via: ACXtractor (MTCDDB.DLL V2003.12.21)
#
DISCID=a7092c0d
DTITLE=Ian Betteridge - The Writing Side of Me
DYEAR=1998
DGENRE=Country
TTITLE0=Wyonoa
TTITLE1=Rodeo Queen
TTITLE2=The Wedding Song
TTITLE3=Home on the Phone
TTITLE4=Modern Day Cowboy
TTITLE5=Only One Reason
TTITLE6=Wildlife Refuge
TTITLE7=Perth
TTITLE8=Rodeo Cowbpys
TTITLE9=Music Makes the World go Around
TTITLE10=Ups and Downs
TTITLE11=The Bigger the Fool
TTITLE12=Lifes Journey
EXTD=ID3G:   2 YEAR: 1998
EXTT0=
EXTT1=
EXTT2=
EXTT3=
EXTT4=
EXTT5=
EXTT6=
EXTT7=
EXTT8=
EXTT9=
EXTT10=
EXTT11=
EXTT12=
PLAYORDER=
